<svg width="285" height="417" viewBox="0 0 285 417" fill="none" xmlns="http://www.w3.org/2000/svg">
<path d="M167.777 0V16.5461L126.331 47.6529L84.8853 16.5461V0H68.3069V24.8192L112.571 58.077L68.3069 91.3347V115.823H84.8853V99.6078L126.331 68.501L167.777 99.6078V115.823H184.356V91.3347L140.091 58.077L184.356 24.8192V0H167.777Z" fill="white"/>
<path d="M285 99.091H261.362L211.068 149.287H184.412L184.356 99.5C177.809 99.5 174.194 99.5099 167.647 99.5099V216.215H184.412V166.019H211.068L261.362 216.215H285L226.324 157.653L285 99.091Z" fill="#EF3268"/>
<path d="M33.5294 333.34C33.5294 324.137 41.0735 316.608 50.2941 316.608H117.353V400.268H33.5294V333.34ZM0 417H150.882V400.268H134.118V299.876H50.2941C31.5176 299.876 16.7647 315.604 16.7647 333.34V400.268H0V417Z" fill="#23B574"/>
<path d="M184.412 216.215V199.483H67.0588V216.215H117.353V316.608H134.118V216.215H184.412Z" fill="#FDEE21"/>
</svg>
