<svg width="215" height="420" viewBox="0 0 215 420" fill="none" xmlns="http://www.w3.org/2000/svg">
<path d="M127.141 0V12.7273L95.4617 36.6545L63.7819 12.7273V0H51.11V19.0909L84.944 44.6727L51.11 70.2545V89.0909H63.7819V76.6182L95.4617 52.6909L126.719 76.7879V89.0909H139.391V70.4242L105.979 44.6727L139.813 19.0909V0H127.141Z" fill="#F1F1F1"/>
<path d="M108.978 154.849C102.009 154.849 96.3066 149.121 96.3066 142.121V121.758C96.3066 114.758 102.009 109.031 108.978 109.031H126.719V154.849H108.978ZM157.132 109.031C164.101 109.031 169.804 114.758 169.804 121.758V142.121C169.804 149.121 164.101 154.849 157.132 154.849H139.391V109.031H157.132ZM126.719 96.3033H108.978C95.0394 96.3033 83.6346 107.758 83.6346 121.758V142.121C83.6346 156.249 94.9126 167.576 108.978 167.576H126.719V180.303H139.391V167.576H157.132C171.071 167.576 182.476 156.121 182.476 142.121V121.758C182.476 107.885 170.944 96.3033 157.132 96.3033H139.391V83.576H126.719V96.3033Z" fill="#EF3268"/>
<path d="M215 178.182H197.133L159.117 216.364H139.391V179.03H126.719V267.273H139.391V229.091H159.117L197.133 267.273H215L170.648 222.727L215 178.182Z" fill="#F1F1F1"/>
<path d="M25.3438 356.364C25.3438 349.364 31.0462 343.636 38.0157 343.636H88.7033V407.273H25.3438V356.364ZM0 420H114.047V407.273H101.375V330.909H38.0157C23.8232 330.909 12.6719 342.873 12.6719 356.364V407.273H0V420Z" fill="#F1F1F1"/>
<path d="M139.391 267.273V254.545H50.6876V267.273H88.7033V343.636H101.375V267.273H139.391Z" fill="#EF3268"/>
</svg>
