<svg width="18" height="31" viewBox="0 0 18 31" fill="none" xmlns="http://www.w3.org/2000/svg">
<path d="M16.4216 1.57875C16.8317 1.98897 17.062 2.54526 17.062 3.12531C17.062 3.70536 16.8317 4.26166 16.4216 4.67187L5.59345 15.5L16.4216 26.3281C16.82 26.7407 17.0405 27.2933 17.0356 27.8668C17.0306 28.4404 16.8005 28.989 16.3949 29.3946C15.9893 29.8002 15.4407 30.0302 14.8671 30.0352C14.2936 30.0402 13.741 29.8197 13.3285 29.4212L0.953764 17.0466C0.543671 16.6363 0.313293 16.08 0.313293 15.5C0.313293 14.92 0.543671 14.3637 0.953764 13.9534L13.3285 1.57875C13.7387 1.16866 14.295 0.938278 14.875 0.938278C15.4551 0.938278 16.0114 1.16866 16.4216 1.57875Z" fill="#EF3268"/>
</svg>
