<svg width="45" height="46" viewBox="0 0 45 46" fill="none" xmlns="http://www.w3.org/2000/svg">
<path d="M22.5 45.321C34.9264 45.321 45 35.2475 45 22.821C45 10.3946 34.9264 0.321045 22.5 0.321045C10.0736 0.321045 0 10.3946 0 22.821C0 35.2475 10.0736 45.321 22.5 45.321Z" fill="white"/>
<path fill-rule="evenodd" clip-rule="evenodd" d="M22.4998 11.4141C25.5974 11.4141 25.9867 11.4266 27.2028 11.4831C28.1492 11.5012 29.0856 11.6803 29.9718 12.0127C30.7293 12.3063 31.4172 12.7547 31.9917 13.3291C32.5661 13.9036 33.0145 14.5915 33.3081 15.3489C33.6398 16.2333 33.8188 17.1675 33.8377 18.1117C33.8942 19.3278 33.9067 19.7171 33.9067 22.8148C33.9067 25.9124 33.8942 26.3017 33.8377 27.5178C33.8196 28.4642 33.6405 29.4006 33.3081 30.2869C33.0145 31.0443 32.5661 31.7322 31.9917 32.3067C31.4172 32.8811 30.7293 33.3295 29.9718 33.6231C29.0879 33.9569 28.1537 34.1381 27.2091 34.1589C25.993 34.2155 25.6037 34.228 22.506 34.228C19.4084 34.228 19.0191 34.2155 17.803 34.1589C16.8566 34.1408 15.9202 33.9618 15.0339 33.6294C14.2765 33.3358 13.5886 32.8874 13.0141 32.3129C12.4397 31.7385 11.9913 31.0506 11.6977 30.2931C11.3639 29.4092 11.1827 28.475 11.1618 27.5303C11.1053 26.3143 11.0928 25.925 11.0928 22.8273C11.0928 19.7296 11.1053 19.3403 11.1618 18.1243C11.1799 17.1779 11.359 16.2415 11.6914 15.3552C11.9843 14.5966 12.4323 13.9075 13.0068 13.3319C13.5813 12.7563 14.2696 12.307 15.0277 12.0127C15.912 11.681 16.8462 11.5019 17.7904 11.4831C19.0128 11.4266 19.4021 11.4141 22.4998 11.4141ZM27.1044 13.5364C25.903 13.482 25.5409 13.4694 22.4998 13.4694C19.4586 13.4694 19.0923 13.482 17.8951 13.5364C17.1706 13.5438 16.4527 13.6755 15.7728 13.9257C15.28 14.1157 14.8324 14.4068 14.459 14.7803C14.0855 15.1537 13.7944 15.6013 13.6044 16.0941C13.354 16.7726 13.2216 17.489 13.213 18.2122C13.1586 19.4136 13.146 19.7757 13.146 22.8169C13.146 25.858 13.1586 26.2243 13.213 27.4215C13.2206 28.1475 13.353 28.8669 13.6044 29.548C13.7944 30.0408 14.0855 30.4884 14.459 30.8618C14.8324 31.2353 15.28 31.5264 15.7728 31.7164C16.4513 31.9668 17.1677 32.0992 17.8909 32.1078C19.0923 32.1622 19.4544 32.1748 22.4956 32.1748C25.5367 32.1748 25.903 32.1622 27.1002 32.1078C27.8262 32.1002 28.5456 31.9678 29.2267 31.7164C29.7195 31.5264 30.1671 31.2353 30.5405 30.8618C30.914 30.4884 31.2051 30.0408 31.3951 29.548C31.6455 28.8695 31.7779 28.1531 31.7865 27.4299C31.8409 26.2285 31.8535 25.8664 31.8535 22.8252C31.8535 19.7841 31.8409 19.4178 31.7865 18.2206C31.7789 17.4945 31.6465 16.7752 31.3951 16.0941C31.2051 15.6013 30.914 15.1537 30.5405 14.7803C30.1671 14.4068 29.7195 14.1157 29.2267 13.9257C28.5481 13.676 27.8317 13.5443 27.1086 13.5364H27.1044ZM22.4998 26.6241C23.2519 26.6241 23.9872 26.401 24.6126 25.9831C25.238 25.5653 25.7254 24.9713 26.0133 24.2764C26.3011 23.5815 26.3764 22.8168 26.2297 22.0791C26.083 21.3414 25.7208 20.6638 25.1889 20.1319C24.657 19.6 23.9794 19.2378 23.2417 19.0911C22.504 18.9443 21.7393 19.0197 21.0444 19.3075C20.3495 19.5953 19.7555 20.0828 19.3377 20.7082C18.9198 21.3336 18.6967 22.0689 18.6967 22.821C18.6973 23.8295 19.0981 24.7965 19.8112 25.5096C20.5243 26.2227 21.4913 26.6235 22.4998 26.6241ZM22.4998 16.9627C23.6588 16.9627 24.7919 17.3064 25.7557 17.9503C26.7194 18.5943 27.4705 19.5096 27.9141 20.5804C28.3577 21.6513 28.4737 22.8296 28.2476 23.9665C28.0215 25.1033 27.4633 26.1475 26.6437 26.9671C25.8241 27.7867 24.7799 28.3449 23.6431 28.571C22.5063 28.7971 21.3279 28.6811 20.257 28.2375C19.1862 27.7939 18.2709 27.0428 17.6269 26.079C16.983 25.1153 16.6393 23.9822 16.6393 22.8231C16.6393 21.2688 17.2567 19.7782 18.3558 18.6792C19.4548 17.5801 20.9455 16.9627 22.4998 16.9627ZM29.9572 16.7324C29.9572 17.0032 29.8769 17.2678 29.7265 17.4929C29.5761 17.718 29.3623 17.8935 29.1122 17.9971C28.8621 18.1007 28.5868 18.1278 28.3213 18.075C28.0558 18.0222 27.8119 17.8918 27.6204 17.7003C27.429 17.5089 27.2986 17.265 27.2458 16.9995C27.193 16.734 27.2201 16.4587 27.3237 16.2086C27.4273 15.9585 27.6028 15.7447 27.8279 15.5943C28.053 15.4439 28.3176 15.3636 28.5884 15.3636C28.9514 15.3636 29.2996 15.5078 29.5563 15.7645C29.813 16.0212 29.9572 16.3694 29.9572 16.7324Z" fill="black"/>
</svg>
