<svg width="45" height="46" viewBox="0 0 45 46" fill="none" xmlns="http://www.w3.org/2000/svg">
<path d="M22.5 45.321C34.9264 45.321 45 35.2475 45 22.821C45 10.3946 34.9264 0.321045 22.5 0.321045C10.0736 0.321045 0 10.3946 0 22.821C0 35.2475 10.0736 45.321 22.5 45.321Z" fill="white"/>
<path d="M22.8472 12.5925C16.5953 12.5925 13.3428 16.7618 13.3428 21.3456C13.3428 23.4721 14.427 26.0988 16.2604 26.9318C16.5116 27.0993 16.6791 27.0156 16.6791 26.7644L17.0977 25.1821C17.1395 24.9728 17.1395 24.8472 17.0139 24.7635C16.2985 23.7993 15.9178 22.6277 15.9298 21.4272C15.9298 18.2186 18.3472 15.1753 22.4328 15.1753C26.0181 15.1753 28.5193 17.5509 28.5193 21.0107C28.5193 24.9288 26.5184 27.6811 23.9335 27.6811C23.6012 27.6869 23.272 27.618 22.9699 27.4795C22.6679 27.341 22.4009 27.1364 22.1885 26.8808C21.9761 26.6252 21.8239 26.3253 21.743 26.003C21.6621 25.6807 21.6546 25.3444 21.7211 25.0188C22.1398 23.3088 22.977 21.5172 22.977 20.2676C22.977 19.0997 22.393 18.1746 21.1414 18.1746C19.7244 18.1746 18.4749 19.6753 18.4749 21.6763C18.4588 22.4199 18.6016 23.1584 18.8935 23.8425L17.2191 31.0132C16.97 32.3046 17.0956 34.1821 17.2191 35.306C17.2379 35.5028 17.3363 35.846 17.5874 35.8942C17.6943 35.9018 17.8012 35.8784 17.8951 35.8268C17.989 35.7752 18.0661 35.6975 18.117 35.6032C18.7449 34.6007 19.6407 32.9576 19.9714 31.7207L20.9718 28.2609C21.4302 29.1797 22.8053 29.9353 24.2223 29.9353C28.6407 29.9353 31.7258 25.9335 31.7258 20.9353C31.7258 16.1779 27.8495 12.5925 22.8472 12.5925Z" fill="black"/>
</svg>
