<svg width="45" height="46" viewBox="0 0 45 46" fill="none" xmlns="http://www.w3.org/2000/svg">
<path d="M22.5 45.321C34.9264 45.321 45 35.2475 45 22.821C45 10.3946 34.9264 0.321045 22.5 0.321045C10.0736 0.321045 0 10.3946 0 22.821C0 35.2475 10.0736 45.321 22.5 45.321Z" fill="white"/>
<path d="M33.5993 17.103C33.4666 16.6088 33.2063 16.1581 32.8444 15.7962C32.4826 15.4344 32.0319 15.174 31.5377 15.0414C29.7209 14.5537 22.4267 14.5537 22.4267 14.5537C22.4267 14.5537 15.1325 14.5537 13.3137 15.0414C12.82 15.1752 12.3699 15.4359 12.0083 15.7976C11.6466 16.1593 11.3859 16.6093 11.2521 17.103C10.7644 18.9218 10.7644 22.7165 10.7644 22.7165C10.7644 22.7165 10.7644 26.5112 11.2521 28.33C11.3859 28.8237 11.6466 29.2737 12.0083 29.6354C12.3699 29.9971 12.82 30.2578 13.3137 30.3916C15.1325 30.8793 22.4267 30.8793 22.4267 30.8793C22.4267 30.8793 29.7188 30.8793 31.5377 30.3916C32.0319 30.259 32.4826 29.9986 32.8444 29.6368C33.2063 29.2749 33.4666 28.8242 33.5993 28.33C34.087 26.5112 34.0869 22.7165 34.0869 22.7165C34.0869 22.7165 34.087 18.9218 33.5993 17.103ZM20.093 26.2139V19.2191L26.1628 22.7165L20.093 26.2139Z" fill="black"/>
</svg>
