<svg id="Слой_1" data-name="Слой 1" xmlns="http://www.w3.org/2000/svg" viewBox="0 0 1833.96 1833.96"><defs><style>.cls-1{fill:#fff;}.cls-2{fill:#bfbfbf;}.cls-3{fill:#ee3368;}</style></defs><rect class="cls-1" width="1833.96" height="1833.96"/><path d="M1034,228.51c-138.29-8-231,78-252.71,99.64-103.08,102.43-102,236.16-101.54,288.54,1.26,151.55,78,257.69,107.4,294.42l427.7,5.8c33.84-37.22,108-129.61,123.44-266.64,5.41-48,23-204.19-88-320.07C1229.62,308.59,1153.82,235.49,1034,228.51Z"/><path class="cls-2" d="M1019.5,330.6c-81.77-3.66-149.74,53.64-177.4,110.59-13.64,28.08-10.72,82.3-4.89,190.74,4.27,79.48,11.13,109.77,22.8,139a318.17,318.17,0,0,0,57,92.14c4.61,13,23.79,71.78-4.89,137.39-29.42,67.32-88,93.38-100.45,98.57,0,0,53.27,173.7,342.45,62.93A394.32,394.32,0,0,1,1106,1053.81c-22.48-81.93-12.93-152.13-4.55-190.69a280.12,280.12,0,0,0,57.36-73.52c12.16-22.65,28.61-61.08,33.51-149.59,6.23-112.73,9.35-169.1-24.43-219.83C1160.6,409.32,1109.08,334.6,1019.5,330.6Z"/><path class="cls-2" d="M1453.44,1407.84c20.3-181.25-242.72-188-242.72-188,.78,52-90.42,137.62-90.42,137.62-30.44,47-299.32,224.9-299.32,224.9,262.12-63.78,492.11,28.53,492.11,28.53l-13.23,223H1393C1411.05,1617,1453.44,1407.84,1453.44,1407.84Z"/><path class="cls-3" d="M740.17,1665.5c41.91-48.74,60.1-68.45,89.43-89.18,25.7-18.17,43.13-25.23,67.87-37.58,65-32.46,110-66.48,152.29-97.8,125.13-92.73,147.28-142.85,155.54-177a195.26,195.26,0,0,0,5.42-44.08c-8.13-5.85-16.71-13.34-26-21.75-13.39-12.08-27.54-26.55-30.55-36.15,0,0-252,109.93-342.45-62.93,0,0-327.22-35.25-606.24,0,10.6,100.49,24.48,249.44,34.24,430.48,6.18,114.66,9.31,216.26,10.81,304.44h369.8c9.7-29.23,20.2-51,31.59-63.6Q693.12,1720.34,740.17,1665.5Z"/><path d="M821,1582.39c-36.35,17.62-169.1,188-169.1,188-1.72,13.06.78,35.45,6.12,63.6h641.86l13.23-223C1115.23,1515.25,821,1582.39,821,1582.39Z"/><path d="M999.43,316.28c-99.92,6.11-185.72,94.24-203.76,212.65h431C1206.72,400.48,1107.46,309.67,999.43,316.28Z"/></svg>